<svg id="back-8" xmlns="http://www.w3.org/2000/svg" width="52.387" height="52.387" viewBox="0 0 52.387 52.387">
  <g id="Chevron_Left_Circle">
    <path id="Caminho_8" data-name="Caminho 8" d="M26.194,0A26.194,26.194,0,1,0,52.387,26.194,26.195,26.195,0,0,0,26.194,0Zm0,49.164a22.945,22.945,0,1,1,22.919-22.97A22.988,22.988,0,0,1,26.194,49.164Z"/>
    <path id="Caminho_9" data-name="Caminho 9" d="M146.5,96.8a1.626,1.626,0,0,0-2.315,0l-11.3,11.458a1.7,1.7,0,0,0,0,2.339l11.294,11.458a1.627,1.627,0,0,0,2.315,0,1.665,1.665,0,0,0,0-2.339l-10.142-10.289L146.5,99.143A1.666,1.666,0,0,0,146.5,96.8Z" transform="translate(-114.404 -83.214)"/>
  </g>
</svg>
