<svg xmlns="http://www.w3.org/2000/svg" width="57.143" height="50" viewBox="0 0 57.143 50">
  <g id="coffee-cup" transform="translate(0 -32.001)">
    <g id="Grupo_10" data-name="Grupo 10" transform="translate(7.141 51.047)">
      <g id="Grupo_9" data-name="Grupo 9">
        <path id="Caminho_199" data-name="Caminho 199" d="M100.894,202.654H67.56a3.576,3.576,0,0,0-3.572,3.572v2.381a22.564,22.564,0,0,0,12.246,20.108,1.191,1.191,0,1,0,1.093-2.117,20.188,20.188,0,0,1-10.957-17.991v-2.381a1.191,1.191,0,0,1,1.191-1.191h33.334a1.191,1.191,0,0,1,1.191,1.191v2.381a20.179,20.179,0,0,1-10.96,17.989,1.191,1.191,0,0,0,.548,2.25,1.174,1.174,0,0,0,.545-.133,22.553,22.553,0,0,0,12.248-20.105v-2.381A3.576,3.576,0,0,0,100.894,202.654Z" transform="translate(-63.988 -202.654)" fill="#fff"/>
      </g>
    </g>
    <g id="Grupo_12" data-name="Grupo 12" transform="translate(0 74.855)">
      <g id="Grupo_11" data-name="Grupo 11" transform="translate(0)">
        <path id="Caminho_200" data-name="Caminho 200" d="M54.674,416.7a1.193,1.193,0,0,0-1.1-.736H1.191A1.192,1.192,0,0,0,.348,418l2.669,2.671a8.283,8.283,0,0,0,5.893,2.441H45.85a8.3,8.3,0,0,0,5.9-2.441L54.417,418A1.188,1.188,0,0,0,54.674,416.7Zm-4.612,2.286a5.918,5.918,0,0,1-4.21,1.743H8.911a5.918,5.918,0,0,1-4.21-1.743l-.638-.638H50.7Z" transform="translate(0 -415.966)" fill="#fff"/>
      </g>
    </g>
    <g id="Grupo_14" data-name="Grupo 14" transform="translate(39.632 55.804)">
      <g id="Grupo_13" data-name="Grupo 13">
        <path id="Caminho_201" data-name="Caminho 201" d="M370.3,246.137c-3.207-2.062-8.331.176-8.9.436a1.192,1.192,0,1,0,.988,2.169c1.148-.521,4.829-1.757,6.629-.6.812.521,1.21,1.533,1.21,3.086,0,4.767-9.615,7.648-13.327,8.357l-.843.167a1.19,1.19,0,0,0,.229,2.357,1.1,1.1,0,0,0,.231-.024l.836-.164c.624-.119,15.255-2.988,15.255-10.693C372.6,248.835,371.828,247.123,370.3,246.137Z" transform="translate(-355.093 -245.272)" fill="#fff"/>
      </g>
    </g>
    <g id="Grupo_16" data-name="Grupo 16" transform="translate(33.334 32.001)">
      <g id="Grupo_15" data-name="Grupo 15" transform="translate(0 0)">
        <path id="Caminho_202" data-name="Caminho 202" d="M301.982,41.076a7.133,7.133,0,0,0,0-8.626,1.191,1.191,0,1,0-1.86,1.488,4.8,4.8,0,0,1,0,5.655,7.126,7.126,0,0,0,0,8.626,1.191,1.191,0,0,0,1.86-1.488A4.8,4.8,0,0,1,301.982,41.076Z" transform="translate(-298.666 -32.001)" fill="#fff"/>
      </g>
    </g>
    <g id="Grupo_18" data-name="Grupo 18" transform="translate(26.183 32.002)">
      <g id="Grupo_17" data-name="Grupo 17" transform="translate(0 0)">
        <path id="Caminho_203" data-name="Caminho 203" d="M237.911,41.083a7.126,7.126,0,0,0,0-8.626,1.191,1.191,0,1,0-1.86,1.488,4.8,4.8,0,0,1,0,5.655,7.133,7.133,0,0,0,0,8.626,1.191,1.191,0,0,0,1.86-1.488A4.8,4.8,0,0,1,237.911,41.083Z" transform="translate(-234.597 -32.009)" fill="#fff"/>
      </g>
    </g>
    <g id="Grupo_20" data-name="Grupo 20" transform="translate(19.048 32.003)">
      <g id="Grupo_19" data-name="Grupo 19" transform="translate(0 0)">
        <path id="Caminho_204" data-name="Caminho 204" d="M173.982,41.1a7.133,7.133,0,0,0,0-8.626,1.19,1.19,0,0,0-1.86,1.486,4.8,4.8,0,0,1,0,5.655,7.126,7.126,0,0,0,0,8.626,1.19,1.19,0,1,0,1.86-1.486A4.8,4.8,0,0,1,173.982,41.1Z" transform="translate(-170.666 -32.022)" fill="#fff"/>
      </g>
    </g>
  </g>
</svg>
