<svg xmlns="http://www.w3.org/2000/svg" width="52.913" height="50.709" viewBox="0 0 52.913 50.709">
  <path id="github" d="M26.457.5A26.228,26.228,0,0,0,0,26.5,26.042,26.042,0,0,0,18.09,51.165c1.323.245,1.808-.56,1.808-1.25,0-.617-.022-2.253-.033-4.42-7.359,1.568-8.912-3.488-8.912-3.488-1.2-3-2.943-3.8-2.943-3.8-2.4-1.612.185-1.579.185-1.579A5.535,5.535,0,0,1,12.247,39.3c2.359,3.975,6.193,2.826,7.706,2.163a5.5,5.5,0,0,1,1.676-3.477C15.753,37.339,9.577,35.1,9.577,25.142A9.933,9.933,0,0,1,12.3,18.166a9.1,9.1,0,0,1,.231-6.881s2.216-.7,7.276,2.666a25.367,25.367,0,0,1,13.228,0c5.027-3.362,7.243-2.666,7.243-2.666a9.347,9.347,0,0,1,.265,6.881,9.973,9.973,0,0,1,2.712,6.976c0,9.987-6.184,12.186-12.071,12.825a6.169,6.169,0,0,1,1.786,4.811c0,3.479-.033,6.275-.033,7.119,0,.681.463,1.495,1.819,1.235A25.962,25.962,0,0,0,52.913,26.5,26.232,26.232,0,0,0,26.457.5Z" transform="translate(0 -0.5)" fill="#fff"/>
</svg>
