<svg xmlns="http://www.w3.org/2000/svg" width="209.665" height="219.194" viewBox="0 0 209.665 219.194">
  <g id="mysql" transform="translate(-0.332)">
    <g id="Grupo_7" data-name="Grupo 7" transform="translate(47.983 9.53)">
      <path id="Caminho_175" data-name="Caminho 175" d="M221.362,175.451c0,7.957-21.757,19.061-57.181,19.061S107,183.409,107,175.451V162.09c12.456,8.75,35.262,13.362,57.181,13.362s44.725-4.612,57.181-13.362Zm0,0" transform="translate(-107 -99.21)" fill="#4db6ac"/>
      <path id="Caminho_176" data-name="Caminho 176" d="M221.362,111.451c0,7.957-21.757,19.061-57.181,19.061S107,119.409,107,111.451V98.09c12.456,8.75,35.262,13.362,57.181,13.362s44.725-4.612,57.181-13.362Zm0,0" transform="translate(-107 -63.8)" fill="#4db6ac"/>
      <path id="Caminho_177" data-name="Caminho 177" d="M221.362,40.393c0-10.526-25.6-19.061-57.181-19.061S107,29.867,107,40.393s25.6,19.061,57.181,19.061S221.362,50.919,221.362,40.393Zm0,0" transform="translate(-107 -21.332)" fill="#4db6ac"/>
      <path id="Caminho_178" data-name="Caminho 178" d="M164.181,258.512c-33.7,0-57.181-10.046-57.181-19.061V226.09c12.456,8.75,35.262,13.362,57.181,13.362s44.725-4.612,57.181-13.362v13.362C221.362,248.466,197.879,258.512,164.181,258.512Zm0,0" transform="translate(-107 -134.619)" fill="#4db6ac"/>
    </g>
    <path id="Caminho_179" data-name="Caminho 179" d="M152.378,57.181c-32.346,0-66.71-10.025-66.71-28.59S120.033,0,152.378,0s66.71,10.025,66.71,28.59S184.724,57.181,152.378,57.181Zm0-47.651C116.954,9.53,95.2,20.633,95.2,28.59s21.757,19.061,57.181,19.061,57.181-11.1,57.181-19.061S187.8,9.53,152.378,9.53Zm0,0" transform="translate(-47.214)"/>
    <path id="Caminho_180" data-name="Caminho 180" d="M152.378,150.688c-32.346,0-66.71-10.025-66.71-28.59a4.765,4.765,0,1,1,9.53,0c0,7.957,21.757,19.061,57.181,19.061s57.181-11.1,57.181-19.061a4.765,4.765,0,1,1,9.53,0c0,18.565-34.365,28.59-66.71,28.59Zm0,0" transform="translate(-47.214 -64.917)"/>
    <path id="Caminho_181" data-name="Caminho 181" d="M152.378,214.688c-32.346,0-66.71-10.025-66.71-28.59a4.765,4.765,0,1,1,9.53,0c0,7.957,21.757,19.061,57.181,19.061s57.181-11.1,57.181-19.061a4.765,4.765,0,1,1,9.53,0c0,18.565-34.365,28.59-66.71,28.59Zm0,0" transform="translate(-47.214 -100.326)"/>
    <path id="Caminho_182" data-name="Caminho 182" d="M152.378,172.46c-33.155,0-66.71-9.816-66.71-28.59V58.1a4.765,4.765,0,1,1,9.53,0v85.771c0,9.015,23.483,19.061,57.181,19.061s57.181-10.046,57.181-19.061V58.1a4.765,4.765,0,1,1,9.53,0v85.771c0,18.775-33.555,28.59-66.71,28.59Zm0,0" transform="translate(-47.214 -29.507)"/>
    <path id="Caminho_183" data-name="Caminho 183" d="M211.381,388.983c-10.132,0-18.309-5.7-19.033-13.238a4.763,4.763,0,1,1,9.482-.914c.192,1.925,3.907,4.612,9.54,4.612,5.746.01,9.549-2.858,9.549-4.755,0-2.059-6.033-4.3-10.111-4.8-1.886-.229-18.48-2.6-18.48-14.257,0-8.015,8.378-14.3,19.07-14.3,10.132,0,18.309,5.691,19.033,13.229a4.769,4.769,0,0,1-4.289,5.2,4.832,4.832,0,0,1-5.193-4.289c-.192-1.925-3.907-4.6-9.54-4.6-5.746-.009-9.549,2.86-9.549,4.755,0,2.068,6.041,4.3,10.121,4.8,1.9.229,18.469,2.621,18.469,14.257,0,8.015-8.378,14.3-19.07,14.3Zm0,0" transform="translate(-106.225 -188.85)"/>
    <path id="Caminho_184" data-name="Caminho 184" d="M322.825,388.983H313.3a14.312,14.312,0,0,1-14.3-14.3V355.627a14.313,14.313,0,0,1,14.3-14.3h9.53a14.313,14.313,0,0,1,14.3,14.3v19.061A14.312,14.312,0,0,1,322.825,388.983Zm-9.53-38.12a4.773,4.773,0,0,0-4.766,4.764v19.061a4.774,4.774,0,0,0,4.766,4.766h9.53a4.773,4.773,0,0,0,4.766-4.766V355.627a4.772,4.772,0,0,0-4.766-4.764Zm0,0" transform="translate(-165.245 -188.85)"/>
    <path id="Caminho_185" data-name="Caminho 185" d="M429.493,388.983H410.432a4.766,4.766,0,0,1-4.764-4.766V346.1a4.765,4.765,0,1,1,9.53,0v33.356h14.3a4.765,4.765,0,1,1,0,9.53Zm0,0" transform="translate(-224.262 -188.85)"/>
    <path id="Caminho_186" data-name="Caminho 186" d="M355.959,424.4a4.8,4.8,0,0,1-3.375-1.391l-9.53-9.531a4.764,4.764,0,1,1,6.737-6.738l9.531,9.53a4.76,4.76,0,0,1-3.364,8.13Zm0,0" transform="translate(-188.849 -224.269)"/>
    <path id="Caminho_187" data-name="Caminho 187" d="M111.77,431.639a4.725,4.725,0,0,1-2.125-.506,4.774,4.774,0,0,1-2.136-6.394l19.061-38.122a4.767,4.767,0,1,1,8.53,4.261L116.039,429A4.8,4.8,0,0,1,111.77,431.639Zm0,0" transform="translate(-59.021 -212.445)"/>
    <path id="Caminho_188" data-name="Caminho 188" d="M121.283,412.589a4.787,4.787,0,0,1-4.27-2.63l-9.53-19.061a4.767,4.767,0,1,1,8.53-4.26l9.53,19.059a4.755,4.755,0,0,1-4.26,6.891Zm0,0" transform="translate(-59.004 -212.456)"/>
    <path id="Caminho_189" data-name="Caminho 189" d="M33.688,389a4.767,4.767,0,0,1-4.766-4.766V360.406l-5.717,7.624a4.937,4.937,0,0,1-7.626,0l-5.717-7.624V384.23a4.766,4.766,0,1,1-9.531,0V346.11a4.763,4.763,0,0,1,8.579-2.858l10.482,13.979,10.482-13.979a4.763,4.763,0,0,1,8.579,2.858v38.12A4.767,4.767,0,0,1,33.688,389Zm0,0" transform="translate(0 -188.863)"/>
  </g>
</svg>
