<svg id="css-svgrepo-com" xmlns="http://www.w3.org/2000/svg" width="168.694" height="219.694" viewBox="0 0 168.694 219.694">
  <path id="Caminho_150" data-name="Caminho 150" d="M126.1,0H12.24C9.07,0,6.5,2.57,6.5,7.556V215.771c0,1.353,2.57,3.923,5.74,3.923H169.454c3.17,0,5.74-2.57,5.74-3.923V50.914c0-2.73-.365-3.609-1.008-4.257L128.536,1.008A3.467,3.467,0,0,0,126.1,0Z" transform="translate(-6.5)" fill="#e9e9e0"/>
  <path id="Caminho_151" data-name="Caminho 151" d="M37.5.151V46.636H83.985Z" transform="translate(84.116 0.441)" fill="#d9d7ca"/>
  <path id="Caminho_152" data-name="Caminho 152" d="M169.454,105.693H12.24a5.739,5.739,0,0,1-5.74-5.74V39H175.194V99.953A5.739,5.739,0,0,1,169.454,105.693Z" transform="translate(-6.5 114.001)" fill="#0096e6"/>
  <g id="Grupo_1" data-name="Grupo 1" transform="translate(39.549 167.752)">
    <path id="Caminho_153" data-name="Caminho 153" d="M44.039,78.911a14.632,14.632,0,0,1-4.986,3.217A16.593,16.593,0,0,1,33.046,83.2a16.221,16.221,0,0,1-6.516-1.287,14.593,14.593,0,0,1-5.2-3.809,17.972,17.972,0,0,1-3.488-6.328,28.02,28.02,0,0,1-1.259-8.8,27.755,27.755,0,0,1,1.259-8.768,17.943,17.943,0,0,1,3.488-6.3,14.879,14.879,0,0,1,5.23-3.837,15.976,15.976,0,0,1,6.489-1.314,16.593,16.593,0,0,1,6.006,1.071,14.632,14.632,0,0,1,4.986,3.217l-4.453,3.97a8.1,8.1,0,0,0-2.978-2.252,8.643,8.643,0,0,0-3.405-.7,9.7,9.7,0,0,0-3.782.749A8.1,8.1,0,0,0,26.2,51.363,13.151,13.151,0,0,0,23.98,56a27.371,27.371,0,0,0-.859,6.971,27.717,27.717,0,0,0,.832,6.865A13.446,13.446,0,0,0,26.1,74.482a8.6,8.6,0,0,0,3.111,2.628,8.386,8.386,0,0,0,3.676.832,9.421,9.421,0,0,0,3.621-.7,8.5,8.5,0,0,0,3.084-2.252Z" transform="translate(-16.581 -42.76)" fill="#fff"/>
    <path id="Caminho_154" data-name="Caminho 154" d="M48.742,72.1a10.2,10.2,0,0,1-.887,4.159,10.846,10.846,0,0,1-2.5,3.539,11.957,11.957,0,0,1-3.97,2.44,14.8,14.8,0,0,1-5.363.91c-.859,0-1.742-.047-2.656-.133a21.547,21.547,0,0,1-2.762-.455,14.171,14.171,0,0,1-2.656-.887A8.586,8.586,0,0,1,25.78,80.3l1.126-4.614a11.454,11.454,0,0,0,1.9.832c.769.267,1.561.518,2.385.749s1.644.42,2.468.565a13.293,13.293,0,0,0,2.307.216,7.369,7.369,0,0,0,5.014-1.53,5.711,5.711,0,0,0,1.742-4.531,4.327,4.327,0,0,0-1.232-3.111,13.358,13.358,0,0,0-3.084-2.334q-1.848-1.047-4-2.091a24.381,24.381,0,0,1-4.021-2.468,12.873,12.873,0,0,1-3.111-3.35,8.782,8.782,0,0,1-1.232-4.825,10.776,10.776,0,0,1,.965-4.665,10.436,10.436,0,0,1,2.6-3.46,11.512,11.512,0,0,1,3.809-2.173,13.9,13.9,0,0,1,4.586-.749,28.132,28.132,0,0,1,4.986.455,10.99,10.99,0,0,1,4.076,1.475c-.216.463-.463.973-.749,1.53s-.557,1.071-.8,1.554-.463.887-.643,1.208a4.96,4.96,0,0,1-.322.537,6.478,6.478,0,0,1-.726-.428,5.455,5.455,0,0,0-1.153-.537,8.227,8.227,0,0,0-1.985-.377,18.757,18.757,0,0,0-3.166.055,5.54,5.54,0,0,0-2.04.616,7.059,7.059,0,0,0-1.718,1.259A5.745,5.745,0,0,0,32.583,51.8a4.33,4.33,0,0,0-.428,1.8,4.852,4.852,0,0,0,1.232,3.46,12.092,12.092,0,0,0,3.056,2.307q1.818.995,3.97,1.93a21.521,21.521,0,0,1,4,2.279,11.518,11.518,0,0,1,3.084,3.35A9.744,9.744,0,0,1,48.742,72.1Z" transform="translate(10.309 -42.76)" fill="#fff"/>
    <path id="Caminho_155" data-name="Caminho 155" d="M56.152,72.1a10.2,10.2,0,0,1-.887,4.159,10.846,10.846,0,0,1-2.5,3.539,11.958,11.958,0,0,1-3.97,2.44,14.8,14.8,0,0,1-5.363.91c-.859,0-1.742-.047-2.656-.133a21.547,21.547,0,0,1-2.762-.455,14.17,14.17,0,0,1-2.656-.887A8.587,8.587,0,0,1,33.19,80.3l1.126-4.614a11.454,11.454,0,0,0,1.9.832c.769.267,1.561.518,2.385.749s1.644.42,2.468.565a13.293,13.293,0,0,0,2.307.216,7.369,7.369,0,0,0,5.014-1.53,5.711,5.711,0,0,0,1.742-4.531A4.327,4.327,0,0,0,48.9,68.876a13.358,13.358,0,0,0-3.084-2.334q-1.848-1.047-4-2.091A24.381,24.381,0,0,1,37.8,61.983a12.872,12.872,0,0,1-3.111-3.35,8.782,8.782,0,0,1-1.232-4.825,10.776,10.776,0,0,1,.965-4.665,10.436,10.436,0,0,1,2.6-3.46,11.512,11.512,0,0,1,3.809-2.173,13.9,13.9,0,0,1,4.586-.749,28.132,28.132,0,0,1,4.986.455,10.99,10.99,0,0,1,4.076,1.475c-.216.463-.463.973-.749,1.53s-.557,1.071-.8,1.554-.463.887-.643,1.208a4.96,4.96,0,0,1-.322.537,6.479,6.479,0,0,1-.726-.428,5.456,5.456,0,0,0-1.153-.537,8.227,8.227,0,0,0-1.985-.377,18.757,18.757,0,0,0-3.166.055,5.54,5.54,0,0,0-2.04.616,7.059,7.059,0,0,0-1.718,1.259A5.745,5.745,0,0,0,39.993,51.8a4.331,4.331,0,0,0-.428,1.8,4.852,4.852,0,0,0,1.232,3.46,12.093,12.093,0,0,0,3.056,2.307q1.818.995,3.97,1.93a21.522,21.522,0,0,1,4,2.279,11.518,11.518,0,0,1,3.084,3.35A9.744,9.744,0,0,1,56.152,72.1Z" transform="translate(31.969 -42.76)" fill="#fff"/>
  </g>
  <g id="Grupo_2" data-name="Grupo 2" transform="translate(31.385 47.077)">
    <path id="Caminho_156" data-name="Caminho 156" d="M34.116,39.462V23.769a3.927,3.927,0,0,1,3.923-3.923,3.923,3.923,0,1,0,0-7.846A11.784,11.784,0,0,0,26.269,23.769V39.462a7.854,7.854,0,0,1-7.846,7.846,3.923,3.923,0,0,0,0,7.846A7.854,7.854,0,0,1,26.269,63V78.693A11.784,11.784,0,0,0,38.039,90.462a3.923,3.923,0,1,0,0-7.846,3.927,3.927,0,0,1-3.923-3.923V63a15.6,15.6,0,0,0-5.422-11.769A15.6,15.6,0,0,0,34.116,39.462Z" transform="translate(-14.5 -12)" fill="#0096e6"/>
    <path id="Caminho_157" data-name="Caminho 157" d="M57.039,47.308a7.854,7.854,0,0,1-7.846-7.846V23.769A11.784,11.784,0,0,0,37.423,12a3.923,3.923,0,1,0,0,7.846,3.927,3.927,0,0,1,3.923,3.923V39.462a15.6,15.6,0,0,0,5.422,11.769A15.6,15.6,0,0,0,41.346,63V78.693a3.927,3.927,0,0,1-3.923,3.923,3.923,3.923,0,0,0,0,7.846A11.784,11.784,0,0,0,49.192,78.693V63a7.854,7.854,0,0,1,7.846-7.846,3.923,3.923,0,0,0,0-7.846Z" transform="translate(41.039 -12)" fill="#0096e6"/>
  </g>
</svg>
