<svg xmlns="http://www.w3.org/2000/svg" width="173.844" height="219.194" viewBox="0 0 173.844 219.194">
  <g id="php" transform="translate(-72 -24)">
    <path id="Caminho_190" data-name="Caminho 190" d="M223.168,243.194H94.675A22.675,22.675,0,0,1,72,220.519V46.675A22.675,22.675,0,0,1,94.675,24H200.493l45.35,45.351V220.519A22.675,22.675,0,0,1,223.168,243.194Z" fill="#cfd2fc"/>
    <path id="Caminho_191" data-name="Caminho 191" d="M72,360H245.844v37.792a22.675,22.675,0,0,1-22.675,22.675H94.675A22.675,22.675,0,0,1,72,397.792Z" transform="translate(0 -177.273)" fill="#5153ff"/>
    <g id="Grupo_8" data-name="Grupo 8" transform="translate(102.234 24)">
      <path id="Caminho_192" data-name="Caminho 192" d="M389.35,69.351H366.675A22.675,22.675,0,0,1,344,46.675V24Z" transform="translate(-245.74 -24)" fill="#8690fa"/>
      <path id="Caminho_193" data-name="Caminho 193" d="M162.454,212.909a3.768,3.768,0,0,1-2.672-1.107l-22.675-22.675a3.779,3.779,0,0,1,0-5.345l22.675-22.675a3.779,3.779,0,1,1,5.345,5.345l-20,20,20,20a3.779,3.779,0,0,1-2.672,6.452Z" transform="translate(-136 -95.753)" fill="#8690fa"/>
      <path id="Caminho_194" data-name="Caminho 194" d="M315.779,212.909a3.779,3.779,0,0,1-2.672-6.452l20-20-20-20a3.779,3.779,0,1,1,5.345-5.345l22.675,22.675a3.779,3.779,0,0,1,0,5.345L318.451,211.8a3.767,3.767,0,0,1-2.672,1.107Z" transform="translate(-228.857 -95.753)" fill="#8690fa"/>
      <circle id="Elipse_2" data-name="Elipse 2" cx="4" cy="4" r="4" transform="translate(52.766 117)" fill="#8690fa"/>
      <path id="Caminho_195" data-name="Caminho 195" d="M234.9,196.913a3.779,3.779,0,0,1-3.779-3.779V178.017a3.779,3.779,0,0,1,3.779-3.779A11.338,11.338,0,1,0,223.558,162.9a3.779,3.779,0,1,1-7.558,0,18.9,18.9,0,1,1,22.675,18.518v11.716A3.779,3.779,0,0,1,234.9,196.913Z" transform="translate(-178.208 -87.316)" fill="#8690fa"/>
    </g>
    <path id="Caminho_196" data-name="Caminho 196" d="M307.338,384h-7.558A3.779,3.779,0,0,0,296,387.779v30.234a3.779,3.779,0,1,0,7.558,0V406.675h3.779a11.338,11.338,0,1,0,0-22.675Zm0,15.117h-3.779v-7.558h3.779a3.779,3.779,0,1,1,0,7.558Z" transform="translate(-118.182 -189.936)" fill="#fff"/>
    <path id="Caminho_197" data-name="Caminho 197" d="M179.338,384h-7.558A3.779,3.779,0,0,0,168,387.779v30.234a3.779,3.779,0,0,0,7.558,0V406.675h3.779a11.338,11.338,0,1,0,0-22.675Zm0,15.117h-3.779v-7.558h3.779a3.779,3.779,0,0,1,0,7.558Z" transform="translate(-50.649 -189.936)" fill="#fff"/>
    <path id="Caminho_198" data-name="Caminho 198" d="M250.9,384a3.779,3.779,0,0,0-3.779,3.779v11.338h-7.558V387.779a3.779,3.779,0,0,0-7.558,0v30.234a3.779,3.779,0,0,0,7.558,0V406.675h7.558v11.338a3.779,3.779,0,0,0,7.558,0V387.779A3.779,3.779,0,0,0,250.9,384Z" transform="translate(-84.416 -189.936)" fill="#fff"/>
  </g>
</svg>
