<svg id="html-svgrepo-com" xmlns="http://www.w3.org/2000/svg" width="168.694" height="219.694" viewBox="0 0 168.694 219.694">
  <path id="Caminho_158" data-name="Caminho 158" d="M126.1,0H12.24C9.07,0,6.5,2.57,6.5,7.556V215.771c0,1.353,2.57,3.923,5.74,3.923H169.454c3.17,0,5.74-2.57,5.74-3.923V50.914c0-2.73-.365-3.609-1.008-4.257L128.536,1.008A3.467,3.467,0,0,0,126.1,0Z" transform="translate(-6.5)" fill="#e9e9e0"/>
  <path id="Caminho_159" data-name="Caminho 159" d="M37.5.151V46.636H83.985Z" transform="translate(84.116 0.441)" fill="#d9d7ca"/>
  <path id="Caminho_160" data-name="Caminho 160" d="M169.454,105.693H12.24a5.739,5.739,0,0,1-5.74-5.74V39H175.194V99.953A5.739,5.739,0,0,1,169.454,105.693Z" transform="translate(-6.5 114.001)" fill="#ec6630"/>
  <g id="Grupo_3" data-name="Grupo 3" transform="translate(12.887 168.396)">
    <path id="Caminho_161" data-name="Caminho 161" d="M39.875,42.924V82.453H33.437V64.646H16.329V82.453H9.785V42.924h6.544V60.248H33.437V42.924Z" transform="translate(-9.785 -42.924)" fill="#fff"/>
    <path id="Caminho_162" data-name="Caminho 162" d="M49.524,42.924v4.4h-11.8V82.453H31.239V47.322h-11.8v-4.4Z" transform="translate(18.432 -42.924)" fill="#fff"/>
    <path id="Caminho_163" data-name="Caminho 163" d="M59.046,42.924H65.59V82.453H59.046V55.258L50.2,77.247H44.511L35.606,55.258V82.453H29.062V42.924h6.544L47.352,69.958Z" transform="translate(46.564 -42.924)" fill="#fff"/>
    <path id="Caminho_164" data-name="Caminho 164" d="M47.446,42.924V77.573H65.629v4.88H40.9V42.924Z" transform="translate(81.173 -42.924)" fill="#fff"/>
  </g>
  <g id="Grupo_4" data-name="Grupo 4" transform="translate(35.307 62.769)">
    <path id="Caminho_165" data-name="Caminho 165" d="M45.736,17.15a3.919,3.919,0,0,0-5.547,0L16.65,40.689a3.919,3.919,0,0,0,0,5.547L40.189,69.775a3.923,3.923,0,1,0,5.547-5.547L24.971,43.463,45.736,22.7A3.919,3.919,0,0,0,45.736,17.15Z" transform="translate(-15.5 -16)" fill="#ec6630"/>
    <path id="Caminho_166" data-name="Caminho 166" d="M63.736,40.689,40.2,17.15A3.923,3.923,0,1,0,34.65,22.7L55.415,43.463,34.65,64.228A3.923,3.923,0,1,0,40.2,69.775L63.736,46.236A3.919,3.919,0,0,0,63.736,40.689Z" transform="translate(37.116 -16)" fill="#ec6630"/>
  </g>
</svg>
