<svg id="javascript-svgrepo-com" xmlns="http://www.w3.org/2000/svg" width="168.694" height="219.694" viewBox="0 0 168.694 219.694">
  <path id="Caminho_167" data-name="Caminho 167" d="M126.1,0H12.24C9.07,0,6.5,2.57,6.5,7.556V215.771c0,1.353,2.57,3.923,5.74,3.923H169.454c3.17,0,5.74-2.57,5.74-3.923V50.914c0-2.73-.365-3.609-1.008-4.257L128.536,1.008A3.467,3.467,0,0,0,126.1,0Z" transform="translate(-6.5)" fill="#e9e9e0"/>
  <path id="Caminho_168" data-name="Caminho 168" d="M37.5.151V46.636H83.985Z" transform="translate(84.116 0.441)" fill="#d9d7ca"/>
  <path id="Caminho_169" data-name="Caminho 169" d="M169.454,105.693H12.24a5.739,5.739,0,0,1-5.74-5.74V39H175.194V99.953A5.739,5.739,0,0,1,169.454,105.693Z" transform="translate(-6.5 114.001)" fill="#eeaf4b"/>
  <g id="Grupo_5" data-name="Grupo 5" transform="translate(52.393 167.587)">
    <path id="Caminho_170" data-name="Caminho 170" d="M44.045,42.722V73.51a9.844,9.844,0,0,1-1.02,4.692,8.438,8.438,0,0,1-2.734,3.056,10.9,10.9,0,0,1-3.943,1.608,22.959,22.959,0,0,1-4.586.455A18.6,18.6,0,0,1,29,83.079a23.594,23.594,0,0,1-3.272-.749q-1.689-.512-3.244-1.153a11.857,11.857,0,0,1-2.628-1.448l2.734-4.343a8.01,8.01,0,0,0,1.53.777c.663.267,1.385.518,2.173.749s1.608.435,2.468.616a11.753,11.753,0,0,0,2.413.267A8.248,8.248,0,0,0,35.7,76.7a4.34,4.34,0,0,0,1.8-3.727V42.718h6.544Z" transform="translate(-19.855 -42.718)" fill="#fff"/>
    <path id="Caminho_171" data-name="Caminho 171" d="M51.293,72.1a10.2,10.2,0,0,1-.887,4.159,10.846,10.846,0,0,1-2.5,3.539,12,12,0,0,1-3.97,2.44,14.8,14.8,0,0,1-5.363.91c-.859,0-1.742-.047-2.656-.133a21.434,21.434,0,0,1-2.762-.455,14.46,14.46,0,0,1-2.656-.887A8.517,8.517,0,0,1,28.331,80.3l1.126-4.614a11.31,11.31,0,0,0,1.9.832c.769.267,1.561.518,2.385.749a24.065,24.065,0,0,0,2.468.565,13.653,13.653,0,0,0,2.307.216,7.369,7.369,0,0,0,5.014-1.53,5.711,5.711,0,0,0,1.742-4.531,4.343,4.343,0,0,0-1.232-3.111,13.357,13.357,0,0,0-3.084-2.334q-1.848-1.047-4-2.091a24.218,24.218,0,0,1-4.021-2.468,12.806,12.806,0,0,1-3.111-3.35A8.782,8.782,0,0,1,28.6,53.807a10.776,10.776,0,0,1,.965-4.665,10.436,10.436,0,0,1,2.6-3.46,11.512,11.512,0,0,1,3.809-2.173,13.9,13.9,0,0,1,4.586-.749,28.132,28.132,0,0,1,4.986.455,10.99,10.99,0,0,1,4.076,1.475c-.216.463-.467.973-.749,1.53s-.557,1.071-.8,1.554-.467.887-.643,1.208a4.958,4.958,0,0,1-.322.537,6.479,6.479,0,0,1-.726-.428,5.552,5.552,0,0,0-1.153-.537,8.266,8.266,0,0,0-1.985-.377,18.757,18.757,0,0,0-3.166.055,5.54,5.54,0,0,0-2.04.616,6.984,6.984,0,0,0-1.718,1.259A5.673,5.673,0,0,0,35.134,51.8a4.317,4.317,0,0,0-.428,1.8,4.852,4.852,0,0,0,1.232,3.46,11.954,11.954,0,0,0,3.056,2.307c1.216.663,2.534,1.306,3.97,1.93a21.65,21.65,0,0,1,4,2.279,11.518,11.518,0,0,1,3.084,3.35A9.681,9.681,0,0,1,51.293,72.1Z" transform="translate(4.921 -42.595)" fill="#fff"/>
  </g>
  <g id="Grupo_6" data-name="Grupo 6" transform="translate(31.385 47.077)">
    <path id="Caminho_172" data-name="Caminho 172" d="M34.116,39.462V23.769a3.927,3.927,0,0,1,3.923-3.923,3.923,3.923,0,1,0,0-7.846A11.784,11.784,0,0,0,26.269,23.769V39.462a7.854,7.854,0,0,1-7.846,7.846,3.923,3.923,0,0,0,0,7.846A7.854,7.854,0,0,1,26.269,63V78.693A11.784,11.784,0,0,0,38.039,90.462a3.923,3.923,0,1,0,0-7.846,3.927,3.927,0,0,1-3.923-3.923V63a15.6,15.6,0,0,0-5.422-11.769A15.6,15.6,0,0,0,34.116,39.462Z" transform="translate(-14.5 -12)" fill="#eeaf4b"/>
    <ellipse id="Elipse_1" data-name="Elipse 1" cx="5.885" cy="5.885" rx="5.885" ry="5.885" transform="translate(45.116 19.616)" fill="#eeaf4b"/>
    <path id="Caminho_173" data-name="Caminho 173" d="M57.039,47.308a7.854,7.854,0,0,1-7.846-7.846V23.769A11.784,11.784,0,0,0,37.423,12a3.923,3.923,0,1,0,0,7.846,3.927,3.927,0,0,1,3.923,3.923V39.462a15.6,15.6,0,0,0,5.422,11.769A15.6,15.6,0,0,0,41.346,63V78.693a3.927,3.927,0,0,1-3.923,3.923,3.923,3.923,0,0,0,0,7.846A11.784,11.784,0,0,0,49.192,78.693V63a7.854,7.854,0,0,1,7.846-7.846,3.923,3.923,0,0,0,0-7.846Z" transform="translate(41.039 -12)" fill="#eeaf4b"/>
    <path id="Caminho_174" data-name="Caminho 174" d="M30.423,24A3.922,3.922,0,0,0,26.5,27.923V39.692a3.923,3.923,0,0,0,7.846,0V27.923A3.922,3.922,0,0,0,30.423,24Z" transform="translate(20.577 23.077)" fill="#eeaf4b"/>
  </g>
</svg>
