<svg xmlns="http://www.w3.org/2000/svg" width="50.71" height="50.709" viewBox="0 0 50.71 50.709">
  <path id="linkedin" d="M25.355,0A25.355,25.355,0,1,0,50.71,25.355,25.358,25.358,0,0,0,25.355,0ZM17.987,38.329H11.812V19.752h6.175ZM14.9,17.215h-.04a3.218,3.218,0,1,1,.081-6.419,3.22,3.22,0,1,1-.041,6.419ZM40.253,38.329H34.079V28.391c0-2.5-.894-4.2-3.128-4.2a3.38,3.38,0,0,0-3.168,2.258,4.229,4.229,0,0,0-.2,1.507V38.329H21.4s.081-16.835,0-18.578h6.175v2.63a6.13,6.13,0,0,1,5.565-3.066c4.063,0,7.109,2.655,7.109,8.361Zm0,0" fill="#fff"/>
</svg>
