<svg xmlns="http://www.w3.org/2000/svg" width="35.031" height="28.506" viewBox="0 0 35.031 28.506">
  <g id="menu-3" transform="translate(0 -96.243)">
    <g id="Menu_1_" transform="translate(0 96.243)">
      <path id="Caminho_85" data-name="Caminho 85" d="M33.936,99.806H1.095c-.6,0-1.095-.8-1.095-1.782s.49-1.782,1.095-1.782H33.936c.6,0,1.095.8,1.095,1.782S34.541,99.806,33.936,99.806Z" transform="translate(0 -96.243)" fill="#fff"/>
      <path id="Caminho_86" data-name="Caminho 86" d="M1.095,180.455H33.936c.6,0,1.095.8,1.095,1.782s-.49,1.782-1.095,1.782H1.095c-.6,0-1.095-.8-1.095-1.782S.49,180.455,1.095,180.455Z" transform="translate(0 -167.983)" fill="#fff"/>
      <path id="Caminho_87" data-name="Caminho 87" d="M121.4,264.667h21.894c.6,0,1.095.8,1.095,1.782s-.49,1.782-1.095,1.782H121.4c-.6,0-1.095-.8-1.095-1.782S120.793,264.667,121.4,264.667Z" transform="translate(-120.303 -239.724)" fill="#fff"/>
    </g>
  </g>
</svg>
