<svg id="Chevron_Right_Circle" xmlns="http://www.w3.org/2000/svg" width="52.387" height="52.387" viewBox="0 0 52.387 52.387">
  <path id="Caminho_103" data-name="Caminho 103" d="M26.194,0A26.194,26.194,0,1,0,52.387,26.194,26.193,26.193,0,0,0,26.194,0Zm0,49.113A22.945,22.945,0,1,1,49.113,26.194,22.944,22.944,0,0,1,26.194,49.113Z"/>
  <path id="Caminho_104" data-name="Caminho 104" d="M148.36,96.432a1.626,1.626,0,0,0-2.315,0,1.665,1.665,0,0,0,0,2.339l10.142,10.289-10.143,10.289a1.665,1.665,0,0,0,0,2.339,1.626,1.626,0,0,0,2.315,0l11.3-11.458a1.7,1.7,0,0,0,0-2.339Z" transform="translate(-125.755 -82.891)"/>
</svg>
